<svg width="35" height="35" viewBox="0 0 35 35" fill="none" xmlns="http://www.w3.org/2000/svg">
<path d="M17.5 2.5C13.5218 2.5 9.70644 4.08035 6.8934 6.8934C4.08035 9.70644 2.5 13.5218 2.5 17.5C2.5 21.4782 4.08035 25.2936 6.8934 28.1066C9.70644 30.9196 13.5218 32.5 17.5 32.5L17.5 17.5V2.5Z" fill="currentColor"/>
<mask id="path-2-inside-1_12_2" fill="white">
<path d="M17.5 32.5C21.4782 32.5 25.2936 30.9196 28.1066 28.1066C30.9196 25.2936 32.5 21.4782 32.5 17.5C32.5 13.5218 30.9196 9.70645 28.1066 6.8934C25.2936 4.08035 21.4782 2.5 17.5 2.5L17.5 17.5V32.5Z"/>
</mask>
<path d="M17.5 32.5C21.4782 32.5 25.2936 30.9196 28.1066 28.1066C30.9196 25.2936 32.5 21.4782 32.5 17.5C32.5 13.5218 30.9196 9.70645 28.1066 6.8934C25.2936 4.08035 21.4782 2.5 17.5 2.5L17.5 17.5V32.5Z" stroke="currentColor" stroke-width="2" mask="url(#path-2-inside-1_12_2)"/>
</svg>
